<?xml version="1.0" encoding="UTF-8"?>
<svg id="Layer_1" data-name="Layer 1" xmlns="http://www.w3.org/2000/svg" viewBox="0 0 349.19 452.39">
  <defs>
    <style>
      .cls-1 {
        fill: #f1f2f2;
      }
    </style>
  </defs>
  <path class="cls-1" d="M32.03,96.88c-4.52-13.15-11.69-21.89-21.5-26.21l-5.3-2.36v-3.53L132.47,12.94h2.36c-1.18,12.96-1.77,34.37-1.77,64.21v258.03c0,27.89.68,48.41,2.06,61.56,1.37,13.16,3.73,22.49,7.07,27.98,3.33,5.5,8.74,10.01,16.2,13.55l8.25,4.12v3.54H5.23v-3.54l8.25-4.12c7.46-3.54,12.86-8.04,16.2-13.55,3.33-5.5,5.69-14.82,7.07-27.98,1.37-13.15,2.06-33.67,2.06-61.56v-168.49c0-33.38-2.26-56.65-6.77-69.81Z"/>
  <path class="cls-1" d="M209.35,238.27c-4.52-13.15-11.69-21.89-21.5-26.22l-5.3-2.36v-3.53l127.25-51.84h2.36c-1.18,12.96-1.77,34.37-1.77,64.21v116.64c0,27.89.68,48.41,2.06,61.56,1.37,13.16,3.73,22.49,7.07,27.98,3.33,5.5,8.74,10.01,16.2,13.55l8.25,4.12v3.54h-161.42v-3.54l8.25-4.12c7.46-3.54,12.86-8.04,16.2-13.55,3.33-5.5,5.69-14.82,7.07-27.98,1.37-13.15,2.06-33.67,2.06-61.56v-27.1c0-33.38-2.26-56.65-6.77-69.81ZM220.54,99.54c-10.41-9.43-15.61-22.98-15.61-40.65,0-16.5,5.2-29.35,15.61-38.59,10.4-9.22,24.25-13.84,41.53-13.84s31.52,4.52,41.53,13.55c10.02,9.04,15.02,22,15.02,38.88,0,18.07-5.01,31.72-15.02,40.94-10.01,9.23-23.86,13.84-41.53,13.84s-31.13-4.71-41.53-14.14Z"/>
</svg>