<?xml version="1.0" encoding="UTF-8"?>
<svg id="Layer_1" data-name="Layer 1" xmlns="http://www.w3.org/2000/svg" viewBox="0 0 1003.34 593.61">
  <defs>
    <style>
      .cls-1 {
        fill: #2b3990;
      }
    </style>
  </defs>
  <path class="cls-1" d="M31.24,62.49c-2.92-8.5-7.56-14.15-13.9-16.95l-3.43-1.52v-2.29L96.16,8.23h1.52c-.76,8.38-1.14,22.22-1.14,41.51v166.77c0,18.03.44,31.29,1.33,39.79.89,8.5,2.41,14.53,4.57,18.09,2.15,3.56,5.65,6.47,10.47,8.76l5.33,2.66v2.28H13.92v-2.28l5.33-2.66c4.82-2.29,8.31-5.2,10.47-8.76,2.15-3.56,3.68-9.58,4.57-18.09.89-8.5,1.33-21.77,1.33-39.79v-108.9c0-21.58-1.47-36.61-4.38-45.12Z"/>
  <path class="cls-1" d="M158.79,279.91c-6.98-9.52-10.47-22.78-10.47-39.79v-41.12c0-21.58-1.47-36.61-4.38-45.12-2.92-8.5-7.56-14.15-13.9-16.95l-3.43-1.53v-2.28l82.25-33.5h1.52c-.76,8.38-1.14,22.22-1.14,41.51v76.53c0,11.17,1.53,18.91,4.58,23.23,3.04,4.32,8.37,6.47,15.99,6.47,8.38,0,18.4-.51,30.08-1.52v-46.84c0-21.58-1.46-36.61-4.38-45.12-2.92-8.5-7.55-14.15-13.9-16.95l-3.43-1.53v-2.28l82.24-33.5h1.53c-.76,8.38-1.14,22.22-1.14,41.51v52.54c0,16.51.69,29.32,2.09,38.46,1.39,9.14,3.36,15.68,5.9,19.62,2.53,3.94,5.96,6.91,10.28,8.94l3.43,1.53v2.28l-80.72,29.7h-1.14v-43.03h-2.28c-13.2,15.23-25.51,26.22-36.94,32.94-11.42,6.72-22.34,10.09-32.74,10.09-12.95,0-22.91-4.76-29.89-14.28Z"/>
  <path class="cls-1" d="M436.76,256.31c.89,8.5,2.28,14.53,4.19,18.09,1.9,3.56,5.01,6.47,9.33,8.76l4.57,2.66v2.28h-102.05v-2.28l5.33-2.66c4.82-2.29,8.31-5.2,10.47-8.76,2.15-3.56,3.67-9.58,4.57-18.09.89-8.5,1.33-21.77,1.33-39.79v-108.9c0-21.58-1.47-36.61-4.38-45.12-2.92-8.5-7.55-14.15-13.9-16.95l-3.43-1.52v-2.29l82.25-33.5h1.52c-.76,8.38-1.14,22.22-1.14,41.51v166.77c0,18.03.44,31.29,1.33,39.79ZM577.07,284.29v2.28c-10.42,2.79-24.37,4.18-41.88,4.18-13.46,0-25.2-2.47-35.23-7.42-10.03-4.95-18.6-14.14-25.7-27.6l-30.46-57.88v-7.23l43.03-46.07c9.14-9.9,13.7-17.26,13.7-22.08,0-6.1-7.11-10.41-21.32-12.95l-10.66-1.91v-2.28h99.38v2.28c-6.85,2.8-16.12,7.37-27.79,13.71-11.67,6.34-22.72,13.07-33.13,20.18l-25.89,17.52c16.5,30.21,31.09,53.95,43.78,71.2,23.61,31.99,41,50.02,52.17,54.08Z"/>
  <path class="cls-1" d="M717.19,234.41c9.14-8.12,14.34-21.83,15.61-41.12l2.28.38c0,32.5-6.22,57.25-18.66,74.25-12.44,17.01-32.62,25.51-60.54,25.51-14.22,0-27.48-3.37-39.79-10.09-12.32-6.72-22.22-16.5-29.7-29.31-7.49-12.82-11.24-28.12-11.24-45.89,0-24.37,5.2-44.67,15.61-60.92,10.41-16.24,22.59-28.23,36.55-35.98,13.96-7.74,26.4-11.61,37.32-11.61,21.07,0,38.13,6.85,51.21,20.56,13.07,13.7,19.61,32.62,19.61,56.73l-4.57,4.95-94.05-3.05c1.27,23.36,6.28,40.49,15.04,51.4,8.76,10.92,20.24,16.37,34.46,16.37,11.42,0,21.7-4.05,30.84-12.18ZM642.93,124.18c-4.31,9.78-6.47,24.18-6.47,43.21v4.95l40.36-1.52c1.77-7.11,2.67-15.23,2.67-24.38,0-10.4-1.4-19.16-4.19-26.27-2.8-7.11-7.37-10.66-13.71-10.66-8.13,0-14.34,4.89-18.66,14.66Z"/>
  <path class="cls-1" d="M32.38,445.06c-2.92-8.5-7.56-14.15-13.9-16.95l-3.43-1.53v-2.28l82.25-33.5h1.52c-.76,8.38-1.14,22.22-1.14,41.51v75.39c0,18.03.44,31.29,1.33,39.79.89,8.5,2.41,14.53,4.57,18.09,2.15,3.56,5.65,6.47,10.47,8.76l5.33,2.66v2.28H15.06v-2.28l5.33-2.66c4.82-2.29,8.31-5.2,10.47-8.76,2.15-3.56,3.68-9.58,4.57-18.09.89-8.5,1.33-21.77,1.33-39.79v-17.52c0-21.58-1.47-36.61-4.38-45.12ZM39.62,355.39c-6.73-6.1-10.09-14.85-10.09-26.27,0-10.66,3.36-18.97,10.09-24.94,6.72-5.96,15.67-8.95,26.85-8.95s20.37,2.92,26.85,8.76c6.47,5.84,9.71,14.22,9.71,25.13,0,11.68-3.23,20.5-9.71,26.47-6.47,5.96-15.43,8.94-26.85,8.94s-20.12-3.05-26.85-9.14Z"/>
  <path class="cls-1" d="M219.71,550.91c2.92,7.75,7.11,13.13,12.57,16.18,5.46,3.05,14.14,6.09,26.08,9.14l2.28.76v2.28h-129.84v-2.28l7.24-3.43c5.07-2.28,8.63-4.76,10.66-7.42,2.03-2.67,3.49-7.68,4.38-15.05.89-7.35,1.33-19.28,1.33-35.79v-32.75c0-16.5-1.47-28.43-4.38-35.79s-7.55-12.44-13.9-15.23l-3.43-1.52v-2.67l80.34-36.55,1.52.38v49.89h1.53c11.42-17.01,22.71-29.64,33.88-37.89,11.17-8.25,20.81-12.38,28.94-12.38h1.52v60.16h-1.14c-13.97-3.3-28.69-4.95-44.17-4.95-9.14,0-15.74.64-19.8,1.91v67.4c0,15.99,1.46,27.86,4.38,35.6Z"/>
  <path class="cls-1" d="M480.35,396.51v1.53c-5.59,5.32-10.03,10.73-13.33,16.18-3.3,5.46-7.87,14.41-13.7,26.85l-70.44,144.31h-3.05l-74.25-161.83c-2.55-5.33-5.46-10.41-8.76-15.23-3.3-4.82-6.23-8.25-8.76-10.28v-1.53h101.29v2.28l-5.33,3.05c-6.61,3.56-9.9,8.25-9.9,14.09,0,2.79.69,6.28,2.09,10.47s3.62,9.84,6.67,16.95l30.08,69.3,14.09-38.84c4.06-11.42,6.09-21.83,6.09-31.22,0-19.04-8.5-33.37-25.51-43.03l-1.91-.76v-2.28h74.63Z"/>
  <path class="cls-1" d="M501.48,445.06c-2.92-8.5-7.55-14.15-13.9-16.95l-3.43-1.53v-2.28l82.25-33.5h1.52c-.76,8.38-1.14,22.22-1.14,41.51v75.39c0,18.03.44,31.29,1.33,39.79.89,8.5,2.41,14.53,4.57,18.09,2.15,3.56,5.65,6.47,10.47,8.76l5.33,2.66v2.28h-104.33v-2.28l5.33-2.66c4.82-2.29,8.31-5.2,10.47-8.76,2.15-3.56,3.68-9.58,4.57-18.09.89-8.5,1.33-21.77,1.33-39.79v-17.52c0-21.58-1.47-36.61-4.38-45.12ZM508.72,355.39c-6.73-6.1-10.09-14.85-10.09-26.27,0-10.66,3.36-18.97,10.09-24.94,6.72-5.96,15.67-8.95,26.85-8.95s20.37,2.92,26.85,8.76c6.47,5.84,9.71,14.22,9.71,25.13,0,11.68-3.23,20.5-9.71,26.47s-15.43,8.94-26.85,8.94-20.12-3.05-26.85-9.14Z"/>
  <path class="cls-1" d="M683.87,547.49c.89,8.5,2.41,14.53,4.57,18.09,2.15,3.56,5.65,6.47,10.47,8.76l5.33,2.66v2.28h-104.33v-2.28l5.33-2.66c4.82-2.29,8.31-5.2,10.47-8.76,2.15-3.56,3.68-9.58,4.57-18.09.89-8.5,1.33-21.77,1.33-39.79v-17.14c0-20.3-1.47-34.52-4.38-42.64-2.92-8.13-7.55-13.58-13.9-16.37l-3.43-1.52v-2.29l80.34-36.93h1.52v43.03h1.91c13.2-14.98,26.08-25.89,38.65-32.75,12.56-6.85,24.3-10.28,35.22-10.28,13.2,0,22.91,3.8,29.13,11.42,6.22,7.62,9.33,19.8,9.33,36.56v68.92c0,18.03.44,31.29,1.33,39.79.89,8.5,2.41,14.53,4.57,18.09,2.15,3.56,5.65,6.47,10.47,8.76l5.33,2.66v2.28h-104.33v-2.28l5.33-2.66c4.82-2.29,8.31-5.2,10.47-8.76,2.15-3.56,3.67-9.58,4.57-18.09.89-8.5,1.33-21.77,1.33-39.79v-44.17c0-9.65-1.71-16.37-5.14-20.18-3.43-3.81-9.46-5.72-18.09-5.72-7.37,0-17.14.52-29.32,1.53v68.54c0,18.03.44,31.29,1.33,39.79Z"/>
  <path class="cls-1" d="M971.15,525.59c9.14-8.12,14.34-21.83,15.61-41.12l2.28.38c0,32.5-6.22,57.25-18.66,74.25-12.44,17.01-32.62,25.51-60.54,25.51-14.22,0-27.48-3.37-39.79-10.09-12.32-6.72-22.22-16.5-29.7-29.31-7.49-12.82-11.24-28.12-11.24-45.89,0-24.37,5.2-44.67,15.61-60.92,10.41-16.24,22.59-28.23,36.55-35.98,13.96-7.74,26.4-11.61,37.32-11.61,21.07,0,38.13,6.85,51.21,20.56,13.07,13.7,19.61,32.62,19.61,56.73l-4.57,4.95-94.05-3.05c1.27,23.36,6.28,40.49,15.04,51.4,8.76,10.92,20.24,16.37,34.46,16.37,11.42,0,21.7-4.05,30.84-12.18ZM896.9,415.36c-4.31,9.78-6.47,24.18-6.47,43.21v4.95l40.36-1.52c1.77-7.11,2.67-15.23,2.67-24.38,0-10.4-1.4-19.16-4.19-26.27-2.8-7.11-7.37-10.66-13.71-10.66-8.13,0-14.34,4.89-18.66,14.66Z"/>
</svg>